arm26_states
version=1
nRows=17
nColumns=17
inDegrees=yes

# SIMM Motion File Header:
name arm26_states
datacolumns 17
datarows 17
otherdata 1
range 0.26955660 0.31419781
endheader
time	r_shoulder_elev	r_elbow_flex	r_shoulder_elev_u	r_elbow_flex_u	TRIlong.activation	TRIlong.fiber_length	TRIlat.activation	TRIlat.fiber_length	TRImed.activation	TRImed.fiber_length	BIClong.activation	BIClong.fiber_length	BICshort.activation	BICshort.fiber_length	BRA.activation	BRA.fiber_length
      0.26955660	    -10.26039931	     50.92179391	    -24.32284117	    207.13139857	      0.00001676	      0.15012075	      0.01280648	      0.09053814	      0.01215031	      0.08555332	      0.11454446	      0.13165204	      0.02418249	      0.12947102	      0.00067877	      0.08168845
      0.27195878	    -10.31756574	     51.41583427	    -23.27404221	    204.19333158	      0.00001663	      0.15027081	      0.01298822	      0.09072132	      0.01231915	      0.08573750	      0.11497901	      0.13136047	      0.02419217	      0.12917559	      0.00066736	      0.08156701
      0.27436097	    -10.37221982	     51.90279703	    -22.23030972	    201.23617173	      0.00001650	      0.15041927	      0.01316829	      0.09090464	      0.01248647	      0.08592041	      0.11540129	      0.13107027	      0.02419895	      0.12888195	      0.00065637	      0.08144607
      0.27676315	    -10.42437687	     52.38264584	    -21.19614299	    198.27374690	      0.00001638	      0.15056615	      0.01334659	      0.09108215	      0.01265223	      0.08609816	      0.11581104	      0.13078154	      0.02420296	      0.12859022	      0.00064582	      0.08132569
      0.27916534	    -10.47405923	     52.85536589	    -20.16934985	    195.29908607	      0.00001626	      0.15071142	      0.01352248	      0.09125861	      0.01281597	      0.08627504	      0.11620436	      0.13049440	      0.02420371	      0.12830051	      0.00063585	      0.08120594
      0.28156753	    -10.52128750	     53.32093670	    -19.15367228	    192.32375956	      0.00001615	      0.15085508	      0.01369643	      0.09143077	      0.01297807	      0.08644670	      0.11658436	      0.13020897	      0.02420315	      0.12801290	      0.00062646	      0.08108686
      0.28454965	    -10.57654322	     53.88895575	    -17.90643398	    188.62338184	      0.00001600	      0.15103123	      0.01391002	      0.09164133	      0.01317729	      0.08665873	      0.11704087	      0.12985716	      0.02420147	      0.12765891	      0.00061551	      0.08094009
      0.28704942	    -10.62001518	     54.35660274	    -16.87689324	    185.52934685	      0.00001589	      0.15117691	      0.01408561	      0.09181334	      0.01334109	      0.08682892	      0.11740649	      0.12956454	      0.02419875	      0.12736489	      0.00060680	      0.08081799
      0.28954920	    -10.66092945	     54.81651704	    -15.85953827	    182.43494714	      0.00001577	      0.15132088	      0.01425843	      0.09198282	      0.01350227	      0.08699988	      0.11775883	      0.12927411	      0.02419479	      0.12707344	      0.00059846	      0.08069683
      0.29204898	    -10.69931992	     55.26870866	    -14.85822910	    179.35239255	      0.00001566	      0.15146310	      0.01442903	      0.09214878	      0.01366139	      0.08716497	      0.11810064	      0.12898598	      0.02418966	      0.12678465	      0.00059047	      0.08057665
      0.29547084	    -10.74785211	     55.87523059	    -13.51211130	    175.14747507	      0.00001552	      0.15165504	      0.01465821	      0.09237108	      0.01387533	      0.08738882	      0.11854851	      0.12859544	      0.02418051	      0.12639380	      0.00058016	      0.08041388
      0.29829436	    -10.78446580	     56.36489469	    -12.42680670	    171.70392358	      0.00001540	      0.15181083	      0.01484386	      0.09254967	      0.01404883	      0.08756543	      0.11890233	      0.12827671	      0.02417109	      0.12607530	      0.00057221	      0.08028106
      0.30111788	    -10.81804558	     56.84486290	    -11.36249816	    168.27773998	      0.00001528	      0.15196450	      0.01502707	      0.09272458	      0.01422019	      0.08774191	      0.11924523	      0.12796127	      0.02416007	      0.12576054	      0.00056472	      0.08014973
      0.30394140	    -10.84865457	     57.31519706	    -10.32309912	    164.88174502	      0.00001517	      0.15211597	      0.01520717	      0.09289543	      0.01438872	      0.08791181	      0.11957566	      0.12764923	      0.02414721	      0.12544959	      0.00055766	      0.08001992
      0.30771850	    -10.88507790	     57.92945967	     -8.97018953	    160.38208815	      0.00001502	      0.15231530	      0.01544413	      0.09311807	      0.01461055	      0.08813587	      0.12000207	      0.12723726	      0.02412722	      0.12503975	      0.00054883	      0.07984877
      0.31095815	    -10.91231059	     58.44286309	     -7.84811623	    156.57635618	      0.00001490	      0.15248293	      0.01564434	      0.09330329	      0.01479813	      0.08831926	      0.12035604	      0.12688901	      0.02410762	      0.12469391	      0.00054181	      0.07970424
      0.31419781	    -10.93596333	     58.94401123	     -6.75949329	    152.81438977	      0.00001478	      0.15264795	      0.01584178	      0.09348381	      0.01498337	      0.08850127	      0.12069966	      0.12654559	      0.02408575	      0.12435342	      0.00053533	      0.07956194
